<svg version="1.2" baseProfile="tiny-ps" xmlns="http://www.w3.org/2000/svg" viewBox="0 0 455 455" width="455" height="455">
	<title>pressure-indicator-svg</title>
	<style>
		tspan { white-space:pre }
		.shp0 { fill: #b570af } 
	</style>
	<g id="Layer">
		<g id="Layer">
			<path id="Layer" fill-rule="evenodd" class="shp0" d="M454.36 262.13C454.36 312.63 435.31 361.67 400.72 400.19C397.31 404 392.41 406.18 387.3 406.18L67.06 406.18C61.94 406.18 57.05 404 53.63 400.19C19.05 361.67 0 312.64 0 262.13C0 144.15 101.91 48.17 227.18 48.17C352.44 48.17 454.36 144.15 454.36 262.13ZM404.89 327.36C413.65 306.64 418.28 284.43 418.28 262.13C418.28 253.92 417.67 245.85 416.51 237.94L370.97 244.87C370.32 244.97 369.65 245.02 368.98 245.02C362.56 245.02 356.99 240.22 356.03 233.87C354.94 226.71 359.87 220.01 367.03 218.92L410.63 212.28C401.31 182.58 383.86 156.08 360.69 135L329.16 167.43C326.66 169.99 323.32 171.4 319.75 171.4C316.31 171.4 313.06 170.08 310.6 167.69C308.08 165.24 306.67 161.97 306.62 158.46C306.57 154.96 307.89 151.64 310.34 149.13L339.98 118.64C311.66 99.29 277.42 87.03 240.3 84.67L240.3 129.2C240.3 136.44 234.41 142.33 227.18 142.33C219.94 142.33 214.05 136.44 214.05 129.2L214.05 84.67C176.93 87.03 142.7 99.29 114.37 118.64L144.02 149.12C146.46 151.64 147.78 154.95 147.73 158.46C147.68 161.96 146.27 165.24 143.76 167.69C141.29 170.08 138.05 171.4 134.61 171.4C131.03 171.4 127.69 169.99 125.2 167.43L93.66 134.99C70.49 156.08 53.05 182.58 43.72 212.28L87.33 218.91C94.48 220 99.42 226.71 98.33 233.86C97.36 240.22 91.79 245.02 85.38 245.02C84.71 245.02 84.04 244.97 83.38 244.87L37.85 237.94C36.69 245.85 36.07 253.92 36.07 262.12C36.07 284.42 40.71 306.63 49.46 327.34L96.61 303.86C98.45 302.94 100.41 302.47 102.44 302.47C107.46 302.47 111.97 305.26 114.21 309.75C115.77 312.89 116.02 316.45 114.91 319.77C113.79 323.1 111.45 325.79 108.31 327.35L61.48 350.66C65.17 356.67 68.69 361.78 73.5 367.83L75.3 370.1L379.05 370.1L380.86 367.83C385.22 362.34 389.23 356.6 392.87 350.67L346.04 327.35C342.91 325.79 340.56 323.1 339.45 319.77C338.34 316.45 338.59 312.89 340.15 309.75C342.38 305.27 346.89 302.48 351.91 302.48C353.95 302.48 355.91 302.94 357.75 303.86L404.89 327.36Z" />
			<path id="Layer" class="shp0" d="M234.66 256.37L193.47 164.94C192.57 162.94 190.35 161.8 188.15 162.33C185.65 162.93 184.12 165.44 184.72 167.93L208.21 265.43C202.43 272.39 200.3 282.11 203.45 291.31C208.25 305.34 223.53 312.82 237.56 308.02C251.6 303.21 259.08 287.94 254.27 273.91C251.13 264.71 243.49 258.33 234.66 256.37Z" />
		</g>
	</g>
	<g id="Layer">
	</g>
	<g id="Layer">
	</g>
	<g id="Layer">
	</g>
	<g id="Layer">
	</g>
	<g id="Layer">
	</g>
	<g id="Layer">
	</g>
	<g id="Layer">
	</g>
	<g id="Layer">
	</g>
	<g id="Layer">
	</g>
	<g id="Layer">
	</g>
	<g id="Layer">
	</g>
	<g id="Layer">
	</g>
	<g id="Layer">
	</g>
	<g id="Layer">
	</g>
	<g id="Layer">
	</g>
</svg>