<svg width="512" height="512" xmlns="http://www.w3.org/2000/svg" enable-background="new 0 0 512 512">

 <g>
  <title>Layer 1</title>
  <g id="svg_1">
   <path fill="#e57261" d="m135.169,91.902c16.83,0 30.474,-13.649 30.474,-30.485c0,-11.22 -13.533,-36.418 -22.563,-51.981c-3.524,-6.075 -12.297,-6.075 -15.822,0c-9.029,15.563 -22.563,40.761 -22.563,51.981c0,16.836 13.644,30.485 30.474,30.485z" id="XMLID_62_"/>
   <path fill="#e57261" d="m256,91.902c16.83,0 30.474,-13.649 30.474,-30.485c0,-11.22 -13.533,-36.418 -22.563,-51.981c-3.524,-6.075 -12.297,-6.075 -15.822,0c-9.029,15.563 -22.563,40.761 -22.563,51.981c0,16.836 13.643,30.485 30.474,30.485z" id="XMLID_123_"/>
   <path fill="#e57261" d="m376.83,91.902c16.83,0 30.474,-13.649 30.474,-30.485c0,-11.22 -13.533,-36.418 -22.563,-51.981c-3.525,-6.075 -12.297,-6.075 -15.822,0c-9.029,15.563 -22.563,40.761 -22.563,51.981c0,16.836 13.644,30.485 30.474,30.485z" id="XMLID_122_"/>
   <path fill="#e57261" d="m118.391,116.951c-7.454,0 -13.497,6.045 -13.497,13.502l0,108.924l60.55,0l0,-108.923c0,-7.457 -6.042,-13.502 -13.497,-13.502l-33.556,0l0,-0.001z" id="XMLID_121_"/>
   <path fill="#e57261" d="m239.221,116.951c-7.454,0 -13.497,6.045 -13.497,13.502l0,108.924l60.55,0l0,-108.923c0,-7.457 -6.043,-13.502 -13.497,-13.502l-33.556,0l0,-0.001z" id="XMLID_120_"/>
   <path fill="#e57261" d="m360.052,116.951c-7.454,0 -13.497,6.045 -13.497,13.502l0,108.924l60.55,0l0,-108.923c0,-7.457 -6.043,-13.502 -13.497,-13.502l-33.556,0l0,-0.001z" id="XMLID_61_"/>
   <path fill="#e57261" d="m66.25,356.095c2.442,0 4.941,-0.344 7.425,-1.08l37.866,-11.209c12.377,-3.664 25.284,-5.496 38.19,-5.496s25.813,1.832 38.19,5.496l29.888,8.848c12.377,3.664 25.284,5.496 38.19,5.496s25.813,-1.832 38.19,-5.496l29.888,-8.848c12.377,-3.664 25.284,-5.496 38.19,-5.496s25.813,1.832 38.19,5.496l37.866,11.209c2.483,0.735 4.984,1.08 7.425,1.08c12.118,0 22.787,-8.481 22.787,-19.746l0,-38.672c0,-12.82 -12.02,-23.213 -26.848,-23.213l-371.375,0c-14.828,0 -26.848,10.393 -26.848,23.213l0,38.672c0,11.265 10.67,19.746 22.786,19.746z" id="XMLID_52_"/>
   <path fill="#e57261" d="m497,477.12l-40.946,0l0,-91.989c-3.371,0.631 -6.819,0.964 -10.305,0.964c-5.392,0 -10.756,-0.778 -15.941,-2.313l-37.866,-11.209c-9.553,-2.828 -19.537,-4.262 -29.674,-4.262s-20.121,1.434 -29.674,4.262l-29.888,8.848c-15.086,4.466 -30.799,6.73 -46.705,6.73s-31.62,-2.264 -46.706,-6.73l-29.888,-8.848c-9.553,-2.828 -19.537,-4.262 -29.674,-4.262s-20.121,1.434 -29.674,4.262l-37.866,11.209c-5.186,1.535 -10.549,2.314 -15.941,2.314c-3.487,0 -6.935,-0.333 -10.305,-0.964l0,91.989l-40.947,0c-8.284,0 -15,6.716 -15,15s6.716,15 15,15l482,0c8.284,0 15,-6.716 15,-15s-6.716,-15.001 -15,-15.001z" id="XMLID_51_"/>
  </g>
 </g>
</svg>