<svg width="512" height="512" xmlns="http://www.w3.org/2000/svg">

 <g>
  <title>Layer 1</title>
  <path fill="#ffffff" id="svg_1" d="m456.83594,0l-401.66797,0c-30.42188,0 -55.16797,24.74609 -55.16797,55.16797l0,294.23828c0,30.41797 24.74609,55.16406 55.16797,55.16406l127.29687,0l42.15625,84.31641c7.34375,14.6875 18.78125,23.11328 31.37891,23.11328s24.03516,-8.42578 31.37891,-23.11328l42.16015,-84.31641l127.29688,0c30.41797,0 55.16406,-24.74609 55.16406,-55.16406l0,-294.23828c0,-30.42188 -24.74609,-55.16797 -55.16406,-55.16797zm25.16406,349.40625c0,13.875 -11.28906,25.16406 -25.16406,25.16406l-136.56641,0c-5.68359,0 -10.875,3.21094 -13.41797,8.29297l-46.30468,92.60547c-1.86719,3.73438 -3.6211,5.57031 -4.54688,6.27344c-0.92578,-0.70313 -2.67969,-2.53906 -4.54687,-6.27344l-46.30469,-92.60547c-2.53906,-5.08203 -7.73438,-8.29297 -13.41406,-8.29297l-136.56641,0c-13.87891,0 -25.16797,-11.28906 -25.16797,-25.16406l0,-294.23828c0,-13.87891 11.28906,-25.16797 25.16797,-25.16797l401.66797,0c13.875,0 25.16406,11.28906 25.16406,25.16797l0,294.23828zm0,0"/>
 </g>
</svg>