<svg width="512" height="512" xmlns="http://www.w3.org/2000/svg" xml:space="preserve" version="1.1">

 <g>
  <title>Layer 1</title>
  <g id="svg_1">
   <g id="svg_2">
    <path fill="#e57261" id="svg_3" d="m256,231.385c-41.109,0 -75.391,29.795 -82.388,68.923l164.775,0c-6.996,-39.128 -41.278,-68.923 -82.387,-68.923z"/>
   </g>
  </g>
  <g id="svg_4">
   <g id="svg_5">
    <path fill="#e57261" id="svg_6" d="m256,113.231c-24.431,0 -44.308,19.876 -44.308,44.308s19.876,44.308 44.308,44.308s44.308,-19.876 44.308,-44.308s-19.877,-44.308 -44.308,-44.308z"/>
   </g>
  </g>
  <g id="svg_7">
   <g id="svg_8">
    <path fill="#e57261" id="svg_9" d="m467.692,34.462l-423.384,0c-24.432,0 -44.308,19.876 -44.308,44.307l0,275.692c0,24.431 19.876,44.308 44.308,44.308l145.231,0l54.646,72.862c2.789,3.719 7.166,5.908 11.815,5.908s9.026,-2.189 11.815,-5.908l54.646,-72.862l145.231,0c24.431,0 44.308,-19.876 44.308,-44.308l0,-275.692c0,-24.431 -19.876,-44.307 -44.308,-44.307zm-113.23,295.384l-196.924,0c-8.157,0 -14.769,-6.613 -14.769,-14.769c0,-44.978 26.362,-83.912 64.445,-102.171c-15.35,-13.541 -25.06,-33.337 -25.06,-55.368c0,-40.719 33.127,-73.846 73.846,-73.846s73.846,33.127 73.846,73.846c0,22.031 -9.71,41.826 -25.06,55.368c38.083,18.259 64.445,57.192 64.445,102.171c0,8.156 -6.613,14.769 -14.769,14.769z"/>
   </g>
  </g>
  <g id="svg_10"/>
  <g id="svg_11"/>
  <g id="svg_12"/>
  <g id="svg_13"/>
  <g id="svg_14"/>
  <g id="svg_15"/>
  <g id="svg_16"/>
  <g id="svg_17"/>
  <g id="svg_18"/>
  <g id="svg_19"/>
  <g id="svg_20"/>
  <g id="svg_21"/>
  <g id="svg_22"/>
  <g id="svg_23"/>
  <g id="svg_24"/>
 </g>
</svg>