<svg width="512" height="512" xmlns="http://www.w3.org/2000/svg" xml:space="preserve" version="1.1">

 <g>
  <title>Layer 1</title>
  <g id="svg_1">
   <g id="svg_2">
    <path fill="#e57261" id="svg_3" d="m53.333,224c-29.397,0 -53.333,23.936 -53.333,53.333l0,170.667c0,29.397 23.936,53.333 53.333,53.333l64,0c12.011,0 23.061,-4.053 32,-10.795l0,-266.538l-96,0z"/>
   </g>
  </g>
  <g id="svg_4">
   <g id="svg_5">
    <path fill="#e57261" id="svg_6" d="m512,304c0,-12.821 -5.077,-24.768 -13.888,-33.579c9.963,-10.901 15.04,-25.515 13.653,-40.725c-2.496,-27.115 -26.923,-48.363 -55.637,-48.363l-131.776,0c6.528,-19.819 16.981,-56.149 16.981,-85.333c0,-46.272 -39.317,-85.333 -64,-85.333c-22.165,0 -37.995,12.48 -38.677,12.992c-2.517,2.027 -3.989,5.099 -3.989,8.341l0,72.341l-61.44,133.099l-2.56,1.301l0,228.651c17.365,8.192 39.338,12.608 53.333,12.608l195.819,0c23.232,0 43.563,-15.659 48.341,-37.269c2.453,-11.115 1.024,-22.315 -3.861,-32.043c15.765,-7.936 26.368,-24.171 26.368,-42.688c0,-7.552 -1.728,-14.784 -5.013,-21.333c15.765,-7.936 26.346,-24.171 26.346,-42.667z"/>
   </g>
  </g>
  <g id="svg_7"/>
  <g id="svg_8"/>
  <g id="svg_9"/>
  <g id="svg_10"/>
  <g id="svg_11"/>
  <g id="svg_12"/>
  <g id="svg_13"/>
  <g id="svg_14"/>
  <g id="svg_15"/>
  <g id="svg_16"/>
  <g id="svg_17"/>
  <g id="svg_18"/>
  <g id="svg_19"/>
  <g id="svg_20"/>
  <g id="svg_21"/>
 </g>
</svg>