<svg width="512" height="512" xmlns="http://www.w3.org/2000/svg">

 <g>
  <title>Layer 1</title>
  <g id="svg_1">
   <g id="svg_2">
    <path fill="#ffffff" id="svg_3" d="m512,304c0,-12.821 -5.099,-24.768 -13.888,-33.579c9.963,-10.901 15.04,-25.515 13.653,-40.725c-2.496,-27.115 -26.923,-48.363 -55.637,-48.363l-131.776,0c6.528,-19.819 16.981,-56.149 16.981,-85.333c0,-46.272 -39.317,-85.333 -64,-85.333c-22.144,0 -37.995,12.48 -38.656,12.992c-2.539,2.027 -4.011,5.099 -4.011,8.341l0,72.341l-61.461,133.099l-2.539,1.301l0,-4.075c0,-5.888 -4.779,-10.667 -10.667,-10.667l-106.666,0c-29.418,0.001 -53.333,23.916 -53.333,53.334l0,170.667c0,29.419 23.915,53.333 53.333,53.333l64,0c23.061,0 42.773,-14.72 50.197,-35.264c17.75,9.131 41.643,13.931 56.47,13.931l195.819,0c23.232,0 43.563,-15.659 48.341,-37.248c2.453,-11.136 1.024,-22.336 -3.84,-32.064c15.744,-7.915 26.347,-24.192 26.347,-42.688c0,-7.552 -1.728,-14.784 -4.992,-21.312c15.744,-7.936 26.325,-24.192 26.325,-42.688zm-44.992,26.325c-4.117,0.491 -7.595,3.285 -8.917,7.232c-1.301,3.947 -0.213,8.277 2.816,11.136c5.419,5.099 8.427,11.968 8.427,19.307c0,13.461 -10.176,24.768 -23.637,26.325c-4.117,0.491 -7.595,3.285 -8.917,7.232c-1.301,3.947 -0.213,8.277 2.816,11.136c7.019,6.613 9.835,15.893 7.723,25.451c-2.624,11.904 -14.187,20.523 -27.499,20.523l-195.82,0c-17.323,0 -46.379,-8.128 -56.448,-18.219c-3.051,-3.029 -7.659,-3.925 -11.627,-2.304c-3.989,1.643 -6.592,5.547 -6.592,9.856c0,17.643 -14.357,32 -32,32l-64,0c-17.643,0 -32,-14.357 -32,-32l0,-170.667c0,-17.643 14.357,-32 32,-32l96,0l0,10.667c0,3.691 1.92,7.125 5.077,9.088c3.115,1.877 7.04,2.069 10.368,0.448l21.333,-10.667c2.155,-1.067 3.883,-2.859 4.907,-5.056l64,-138.667c0.64,-1.408 0.981,-2.944 0.981,-4.48l0,-68.885c4.438,-2.453 12.14,-5.781 21.334,-5.781c11.691,0 42.667,29.056 42.667,64c0,37.547 -20.437,91.669 -20.629,92.203c-1.237,3.264 -0.811,6.955 1.173,9.856c2.005,2.88 5.291,4.608 8.789,4.608l146.795,0c17.792,0 32.896,12.736 34.389,28.992c1.131,12.16 -4.715,23.723 -15.189,30.187c-3.264,2.005 -5.205,5.632 -5.056,9.493s2.368,7.317 5.781,9.088c9.024,4.587 14.613,13.632 14.613,23.573c0.001,13.461 -10.175,24.768 -23.658,26.325z"/>
   </g>
  </g>
  <g id="svg_4">
   <g id="svg_5">
    <path fill="#ffffff" id="svg_6" d="m160,245.333c-5.888,0 -10.667,4.779 -10.667,10.667l0,192c0,5.888 4.779,10.667 10.667,10.667s10.667,-4.779 10.667,-10.667l0,-192c0,-5.888 -4.779,-10.667 -10.667,-10.667z"/>
   </g>
  </g>
  <g id="svg_7"/>
  <g id="svg_8"/>
  <g id="svg_9"/>
  <g id="svg_10"/>
  <g id="svg_11"/>
  <g id="svg_12"/>
  <g id="svg_13"/>
  <g id="svg_14"/>
  <g id="svg_15"/>
  <g id="svg_16"/>
  <g id="svg_17"/>
  <g id="svg_18"/>
  <g id="svg_19"/>
  <g id="svg_20"/>
  <g id="svg_21"/>
 </g>
</svg>