<svg width="512.00533" height="512" xmlns="http://www.w3.org/2000/svg">

 <g>
  <title>Layer 1</title>
  <path fill="#e57261" id="svg_1" d="m320,277.33594c-11.79687,0 -21.33203,9.55859 -21.33203,21.33203l0,85.33594c0,11.7539 -9.55859,21.33203 -21.33594,21.33203l-64,0l0,-320c0,-18.21875 -11.60547,-34.4961 -29.05469,-40.55469l-6.3164,-2.11328l99.37109,0c11.77735,0 21.33594,9.57812 21.33594,21.33594l0,64c0,11.77343 9.53516,21.33203 21.33203,21.33203s21.33203,-9.5586 21.33203,-21.33203l0,-64c0,-35.28516 -28.71484,-64 -64,-64l-229.33203,0c-0.8125,0 -1.49219,0.36328 -2.28125,0.46875c-1.02734,-0.08594 -2.00781,-0.46875 -3.05078,-0.46875c-23.53125,0 -42.66797,19.13281 -42.66797,42.66406l0,384c0,18.21875 11.60547,34.49609 29.05469,40.55469l128.38672,42.79687c4.35156,1.34375 8.67968,1.98438 13.22656,1.98438c23.53125,0 42.66406,-19.13672 42.66406,-42.66797l0,-21.33203l64,0c35.28516,0 64,-28.71485 64,-64l0,-85.33594c0,-11.77344 -9.53515,-21.33203 -21.33203,-21.33203zm0,0"/>
  <path fill="#e57261" id="svg_2" d="m505.75,198.25391l-85.33594,-85.33203c-6.09765,-6.10157 -15.27343,-7.9375 -23.25,-4.63282c-7.95703,3.3086 -13.16406,11.09375 -13.16406,19.71485l0,64l-85.33203,0c-11.77734,0 -21.33594,9.55468 -21.33594,21.33203c0,11.77734 9.5586,21.33203 21.33594,21.33203l85.33203,0l0,64c0,8.62109 5.20703,16.40625 13.16406,19.71484c7.97657,3.30469 17.15235,1.46875 23.25,-4.6289l85.33594,-85.33594c8.33984,-8.33985 8.33984,-21.82422 0,-30.16406zm0,0"/>
 </g>
</svg>