<svg width="512" height="512" xmlns="http://www.w3.org/2000/svg" xml:space="preserve" version="1.1">

 <g>
  <title>Layer 1</title>
  <g id="svg_1">
   <g id="svg_2">
    <path fill="#e57261" id="svg_3" d="m439.669,481.888l-201.376,-106.624c-5.248,-2.784 -11.648,-2.4 -16.608,0.96l-153.984,106.624c-5.76,4 -8.256,11.264 -6.144,17.952c2.048,6.624 8.256,11.2 15.232,11.2l355.36,0c7.328,0 13.76,-4.992 15.52,-12.16c1.792,-7.136 -1.536,-14.528 -8,-17.952z"/>
   </g>
  </g>
  <g id="svg_4">
   <g id="svg_5">
    <path fill="#e57261" id="svg_6" d="m507.061,451.488l-47.36,-213.216c-1.152,-5.216 -4.832,-9.472 -9.792,-11.424c-4.992,-1.952 -10.592,-1.28 -14.944,1.728l-154.016,106.624c-4.608,3.2 -7.2,8.544 -6.848,14.08c0.32,5.6 3.552,10.592 8.48,13.184l201.344,106.624c2.368,1.248 4.928,1.888 7.488,1.888c3.424,0 6.848,-1.088 9.696,-3.296c4.96,-3.776 7.296,-10.08 5.952,-16.192z"/>
   </g>
  </g>
  <g id="svg_7">
   <g id="svg_8">
    <path fill="#e57261" id="svg_9" d="m395.637,203.232c-2.112,-6.688 -8.288,-11.232 -15.296,-11.232l-146.048,0c-26.56,48.096 -65.856,94.08 -82.016,112.064c-9.088,10.112 -22.112,15.936 -35.712,15.936s-26.624,-5.824 -35.712,-15.936c-6.24,-6.944 -15.904,-18.048 -26.976,-31.808l-38.72,174.272c-1.408,6.432 1.248,13.056 6.688,16.736c2.688,1.824 5.824,2.72 8.928,2.72c3.2,0 6.368,-0.928 9.12,-2.848l349.536,-242.016c5.792,-3.936 8.256,-11.2 6.208,-17.888z"/>
   </g>
  </g>
  <g id="svg_10">
   <g id="svg_11">
    <path fill="#e57261" id="svg_12" d="m116.565,0c-61.76,0 -112,50.24 -112,112c0,57.472 89.856,159.264 100.096,170.688c3.04,3.36 7.36,5.312 11.904,5.312s8.864,-1.952 11.904,-5.312c10.24,-11.424 100.096,-113.216 100.096,-170.688c0,-61.76 -50.24,-112 -112,-112zm0,160c-26.496,0 -48,-21.504 -48,-48c0,-26.496 21.504,-48 48,-48c26.496,0 48,21.504 48,48c0,26.496 -21.504,48 -48,48z"/>
   </g>
  </g>
  <g id="svg_13"/>
  <g id="svg_14"/>
  <g id="svg_15"/>
  <g id="svg_16"/>
  <g id="svg_17"/>
  <g id="svg_18"/>
  <g id="svg_19"/>
  <g id="svg_20"/>
  <g id="svg_21"/>
  <g id="svg_22"/>
  <g id="svg_23"/>
  <g id="svg_24"/>
  <g id="svg_25"/>
  <g id="svg_26"/>
  <g id="svg_27"/>
 </g>
</svg>