<svg width="515.555" height="515.555" xmlns="http://www.w3.org/2000/svg">

 <g>
  <title>Layer 1</title>
  <path fill="#ffffff" id="svg_1" d="m496.679,212.208c25.167,25.167 25.167,65.971 0,91.138s-65.971,25.167 -91.138,0s-25.167,-65.971 0,-91.138s65.971,-25.167 91.138,0"/>
  <path fill="#ffffff" id="svg_2" d="m303.347,212.208c25.167,25.167 25.167,65.971 0,91.138s-65.971,25.167 -91.138,0s-25.167,-65.971 0,-91.138s65.971,-25.167 91.138,0"/>
  <path fill="#ffffff" id="svg_3" d="m110.014,212.208c25.167,25.167 25.167,65.971 0,91.138s-65.971,25.167 -91.138,0s-25.167,-65.971 0,-91.138s65.971,-25.167 91.138,0"/>
 </g>
</svg>