<svg width="512" height="512" xmlns="http://www.w3.org/2000/svg">

 <g>
  <title>Layer 1</title>
  <path fill="#e57261" id="svg_1" d="m453.33203,42.66797l-112,0l0,-5.33594c0,-20.58594 -16.74609,-37.33203 -37.33203,-37.33203l-96,0c-20.58594,0 -37.33203,16.74609 -37.33203,37.33203l0,5.33594l-112,0c-32.36328,0 -58.66797,26.30078 -58.66797,58.66406l0,266.66797c0,32.36328 26.30469,58.66797 58.66797,58.66797l394.66406,0c32.36328,0 58.66797,-26.30469 58.66797,-58.66797l0,-266.66797c0,-32.36328 -26.30469,-58.66406 -58.66797,-58.66406zm-154.64453,42.66406l-85.35547,0l0,-42.66406l85.33594,0l0.01953,42.66406zm-138.6875,64c29.39844,0 53.33203,23.9375 53.33203,53.33594c0,29.39453 -23.93359,53.33203 -53.33203,53.33203s-53.33203,-23.9375 -53.33203,-53.33203c0,-29.39844 23.93359,-53.33594 53.33203,-53.33594zm96,197.33594c0,8.83203 -7.16797,16 -16,16l-160,0c-8.83203,0 -16,-7.16797 -16,-16l0,-10.66797c0,-32.36328 26.30469,-58.66797 58.66797,-58.66797l74.66406,0c32.36328,0 58.66797,26.30469 58.66797,58.66797l0,10.66797zm176,16l-117.33203,0c-8.83203,0 -16,-7.16797 -16,-16s7.16797,-16 16,-16l117.33203,0c8.83203,0 16,7.16797 16,16s-7.16797,16 -16,16zm0,-85.33594l-117.33203,0c-8.83203,0 -16,-7.16797 -16,-16s7.16797,-16 16,-16l117.33203,0c8.83203,0 16,7.16797 16,16s-7.16797,16 -16,16zm0,-85.33203l-117.33203,0c-8.83203,0 -16,-7.16797 -16,-16s7.16797,-16 16,-16l117.33203,0c8.83203,0 16,7.16797 16,16s-7.16797,16 -16,16zm0,0"/>
 </g>
</svg>