<svg width="515.555" height="515.555" xmlns="http://www.w3.org/2000/svg">
 <g>
  <title>Layer 1</title>
  <path d="m496.679,212.208c25.167,25.167 25.167,65.971 0,91.138s-65.971,25.167 -91.138,0s-25.167,-65.971 0,-91.138s65.971,-25.167 91.138,0" id="svg_1" fill="#e57261"/>
  <path d="m303.347,212.208c25.167,25.167 25.167,65.971 0,91.138s-65.971,25.167 -91.138,0s-25.167,-65.971 0,-91.138s65.971,-25.167 91.138,0" id="svg_2" fill="#e57261"/>
  <path d="m110.014,212.208c25.167,25.167 25.167,65.971 0,91.138s-65.971,25.167 -91.138,0s-25.167,-65.971 0,-91.138s65.971,-25.167 91.138,0" id="svg_3" fill="#e57261"/>
 </g>

</svg>